<?xml version="1.0" encoding="UTF-8" standalone="no"?>
<!-- Created with Inkscape (http://www.inkscape.org/) -->

<svg
   xmlns:dc="http://purl.org/dc/elements/1.1/"
   xmlns:cc="http://creativecommons.org/ns#"
   xmlns:rdf="http://www.w3.org/1999/02/22-rdf-syntax-ns#"
   xmlns:svg="http://www.w3.org/2000/svg"
   xmlns="http://www.w3.org/2000/svg"
   xmlns:sodipodi="http://sodipodi.sourceforge.net/DTD/sodipodi-0.dtd"
   xmlns:inkscape="http://www.inkscape.org/namespaces/inkscape"
   width="64px"
   height="64px"
   id="svg2985"
   version="1.1"
   inkscape:version="0.48.2 r9819"
   sodipodi:docname="smile.svg">
  <defs
     id="defs2987" />
  <sodipodi:namedview
     id="base"
     pagecolor="#ffffff"
     bordercolor="#666666"
     borderopacity="1.0"
     inkscape:pageopacity="0.0"
     inkscape:pageshadow="2"
     inkscape:zoom="5.5"
     inkscape:cx="31.234604"
     inkscape:cy="32"
     inkscape:current-layer="layer1"
     showgrid="true"
     inkscape:document-units="px"
     inkscape:grid-bbox="true"
     inkscape:window-width="965"
     inkscape:window-height="642"
     inkscape:window-x="2180"
     inkscape:window-y="260"
     inkscape:window-maximized="0" />
  <metadata
     id="metadata2990">
    <rdf:RDF>
      <cc:Work
         rdf:about="">
        <dc:format>image/svg+xml</dc:format>
        <dc:type
           rdf:resource="http://purl.org/dc/dcmitype/StillImage" />
      </cc:Work>
    </rdf:RDF>
  </metadata>
  <g
     id="layer1"
     inkscape:label="Layer 1"
     inkscape:groupmode="layer">
    <path
       style="font-size:medium;font-style:normal;font-variant:normal;font-weight:normal;font-stretch:normal;text-indent:0;text-align:start;text-decoration:none;line-height:normal;letter-spacing:normal;word-spacing:normal;text-transform:none;direction:ltr;block-progression:tb;writing-mode:lr-tb;text-anchor:start;baseline-shift:baseline;color:#000000;fill:#000000;fill-opacity:1;stroke:none;stroke-width:1;marker:none;visibility:visible;display:inline;overflow:visible;enable-background:accumulate;font-family:Sans;-inkscape-font-specification:Sans"
       d="M 32.008386,-0.03122572 C 14.344055,-0.03122572 7.175e-5,14.31518 7.175e-5,31.982495 c 0,17.667316 14.34398325,32.013722 32.00831425,32.013722 17.664332,0 32.008315,-14.346406 32.008315,-32.013722 0,-17.667315 -14.343983,-32.01372072 -32.008315,-32.01372072 z m 0,1.47613702 c 16.866703,0 30.532427,13.6680327 30.532427,30.5375837 0,16.869552 -13.665724,30.537585 -30.532427,30.537585 -16.866703,0 -30.5324266,-13.668033 -30.5324266,-30.537585 0,-16.869551 13.6657236,-30.5375837 30.5324266,-30.5375837 z"
       id="path2993"
       inkscape:connector-curvature="0" />
    <path
       style="font-size:medium;font-style:normal;font-variant:normal;font-weight:normal;font-stretch:normal;text-indent:0;text-align:start;text-decoration:none;line-height:normal;letter-spacing:normal;word-spacing:normal;text-transform:none;direction:ltr;block-progression:tb;writing-mode:lr-tb;text-anchor:start;baseline-shift:baseline;color:#000000;fill:#000000;fill-opacity:1;stroke:none;stroke-width:1px;marker:none;visibility:visible;display:inline;overflow:visible;enable-background:accumulate;font-family:Sans;-inkscape-font-specification:Sans"
       d="m 20.230735,16.662381 c -2.172439,0.03041 -4.34781,0.840913 -5.934116,2.556757 -2.845181,3.077521 -2.86733,8.120507 0.282578,11.022464 2.792769,2.572934 7.346835,2.56213 9.946707,-0.3409 2.272868,-2.537897 2.231594,-6.652476 -0.395607,-8.977059 -2.256224,-1.996338 -5.888965,-1.927665 -7.912154,0.454534 -1.697623,1.998861 -1.607746,5.13385 0.508639,6.874836 1.720759,1.415536 4.441669,1.369628 5.8776,-0.511351 1.116204,-1.462157 1.019309,-3.749564 -0.62167,-4.886247 -0.595895,-0.412769 -1.327891,-0.607448 -2.034554,-0.511352 -0.706663,0.0961 -1.409187,0.52251 -1.808492,1.24997 -0.262768,0.478716 -0.349744,0.993239 -0.226062,1.534055 0.123683,0.540817 0.564692,1.192655 1.243339,1.363604 0.554834,0.139762 0.817309,-0.03448 1.186823,-0.284085 0.184757,-0.124802 0.416797,-0.29715 0.508638,-0.681801 0.09184,-0.384651 -0.06867,-0.852527 -0.282577,-1.079519 l -1.186822,1.136335 -0.169547,0.113636 c -0.06553,-0.06954 -0.173322,-0.372466 -0.113027,-0.624985 0.06029,-0.252521 0.177955,-0.308406 0.226061,-0.340902 0.09622,-0.065 -0.02746,-0.0781 0.282578,0 0.01527,0.0038 0.07034,0.06043 0.05651,0 -0.01382,-0.06043 0.03756,-0.192724 0.05651,-0.227267 0.104646,-0.190641 0.210057,-0.307983 0.452122,-0.340901 0.242066,-0.03291 0.589308,0.03059 0.791216,0.170451 l 0,0.05682 c 0.659568,0.499484 0.692541,1.530767 0.169546,2.215857 -0.763531,1.000177 -2.300975,1.08772 -3.277893,0.284085 -1.278366,-1.051613 -1.296338,-3.114701 -0.226061,-4.374897 1.329106,-1.564954 3.784732,-1.57901 5.312446,-0.227267 1.832042,1.621015 1.847133,4.55339 0.226062,6.363484 -1.895833,2.116898 -5.274661,2.136479 -7.347,0.227267 -2.364215,-2.178121 -2.366188,-5.992425 -0.226054,-8.352076 l 0,-0.05682 c 2.462829,-2.663947 6.767273,-2.641613 9.381553,-0.17045 2.920922,2.761018 2.908085,7.554234 0.169547,10.454296 l 1.299854,1.24997 c 3.415905,-3.617379 3.45193,-9.534409 -0.226062,-13.011051 -1.664837,-1.573695 -3.818192,-2.359902 -5.990631,-2.32949 z"
       id="path3763"
       inkscape:connector-curvature="0" />
    <path
       style="font-size:medium;font-style:normal;font-variant:normal;font-weight:normal;font-stretch:normal;text-indent:0;text-align:start;text-decoration:none;line-height:normal;letter-spacing:normal;word-spacing:normal;text-transform:none;direction:ltr;block-progression:tb;writing-mode:lr-tb;text-anchor:start;baseline-shift:baseline;color:#000000;fill:#000000;fill-opacity:1;stroke:none;stroke-width:1px;marker:none;visibility:visible;display:inline;overflow:visible;enable-background:accumulate;font-family:Sans;-inkscape-font-specification:Sans"
       d="m 43.875172,16.645958 c -2.183658,0.03041 -4.370264,0.840912 -5.96476,2.556756 -2.859875,3.077522 -2.882138,8.120508 0.284035,11.022465 2.807192,2.572934 7.384776,2.562131 9.998074,-0.340901 2.284605,-2.537896 2.243118,-6.652476 -0.397652,-8.977058 -2.267875,-1.996338 -5.919374,-1.927665 -7.953011,0.454534 -1.70639,1.998861 -1.61605,5.13385 0.511264,6.874836 1.729647,1.415536 4.464608,1.369627 5.907952,-0.511351 1.12197,-1.462159 1.024574,-3.749563 -0.624879,-4.886248 -0.598971,-0.412768 -1.334748,-0.607447 -2.04506,-0.511351 -0.710313,0.0961 -1.416464,0.52251 -1.817832,1.24997 -0.264125,0.478716 -0.351551,0.993239 -0.227229,1.534055 0.124321,0.540817 0.567609,1.192655 1.249759,1.363603 0.557701,0.139763 0.821529,-0.03448 1.192953,-0.284084 0.185711,-0.124801 0.41895,-0.29715 0.511265,-0.681801 0.09231,-0.384651 -0.06902,-0.852527 -0.284037,-1.079521 l -1.192952,1.136337 -0.170421,0.113636 c -0.06587,-0.06954 -0.174217,-0.372466 -0.113611,-0.624986 0.0606,-0.252519 0.178875,-0.308405 0.227229,-0.3409 0.0967,-0.06498 -0.02761,-0.0781 0.284036,0 0.01535,0.0038 0.0707,0.06043 0.05681,0 -0.01389,-0.06043 0.03775,-0.192725 0.05681,-0.227268 0.105186,-0.190641 0.211143,-0.307984 0.454458,-0.340901 0.243314,-0.03292 0.592351,0.0306 0.795301,0.170451 l 0,0.05682 c 0.662974,0.499483 0.696116,1.530765 0.170421,2.215857 -0.767474,1.000177 -2.312858,1.08772 -3.294819,0.284083 -1.284968,-1.051613 -1.303032,-3.114699 -0.227229,-4.374894 1.33597,-1.564955 3.804276,-1.579011 5.33988,-0.227268 1.841501,1.621014 1.856672,4.55339 0.227229,6.363484 -1.905624,2.116897 -5.301899,2.136478 -7.38494,0.227268 -2.376431,-2.178119 -2.378415,-5.992423 -0.227229,-8.352074 l 0,-0.05682 c 2.475548,-2.663948 6.802219,-2.641614 9.430001,-0.170451 2.936005,2.761018 2.923102,7.554234 0.170421,10.454296 l 1.306567,1.24997 c 3.433545,-3.617382 3.469757,-9.534412 -0.227229,-13.011055 -1.673434,-1.573694 -3.83791,-2.359902 -6.021566,-2.329489 z"
       id="path3763-1"
       inkscape:connector-curvature="0" />
    <path
       style="font-size:medium;font-style:normal;font-variant:normal;font-weight:normal;font-stretch:normal;text-indent:0;text-align:start;text-decoration:none;line-height:normal;letter-spacing:normal;word-spacing:normal;text-transform:none;direction:ltr;block-progression:tb;writing-mode:lr-tb;text-anchor:start;baseline-shift:baseline;color:#000000;fill:#000000;fill-opacity:1;stroke:none;stroke-width:1px;marker:none;visibility:visible;display:inline;overflow:visible;enable-background:accumulate;font-family:Sans;-inkscape-font-specification:Sans"
       d="m 47.619694,41.963789 -3.00642,-0.855295 C 43.664605,47.284825 36.249512,50.517555 28.698329,48.495336 24.23059,47.298867 20.169675,44.471885 17.79988,40.903441 l -2.498844,0.848819 c 2.841783,4.279164 7.638058,7.760526 13.035287,9.205914 9.162022,2.453607 18.12247,-1.436306 19.283371,-8.994385 z"
       id="path3795"
       inkscape:connector-curvature="0" />
  </g>
</svg>
